<svg version="1.1" xmlns="http://www.w3.org/2000/svg" xmlns:xlink="http://www.w3.org/1999/xlink" width="115" height="115" viewBox="0,0,115,115"><defs><linearGradient x1="240" y1="126" x2="240" y2="234" gradientUnits="userSpaceOnUse" id="color-1"><stop offset="0" stop-color="#6391ff"/><stop offset="1" stop-color="#cbeeff"/></linearGradient><linearGradient x1="240" y1="126" x2="240" y2="234" gradientUnits="userSpaceOnUse" id="color-2"><stop offset="0" stop-color="#3a45bd"/><stop offset="1" stop-color="#00ceff"/></linearGradient><linearGradient x1="215.16" y1="154.8" x2="215.16" y2="178.92" gradientUnits="userSpaceOnUse" id="color-3"><stop offset="0" stop-color="#1356ff"/><stop offset="1" stop-color="#00ccff"/></linearGradient><linearGradient x1="206.7" y1="154.44" x2="206.7" y2="203.4" gradientUnits="userSpaceOnUse" id="color-4"><stop offset="0" stop-color="#1356ff"/><stop offset="1" stop-color="#00ccff"/></linearGradient><linearGradient x1="232.08" y1="154.44" x2="232.08" y2="178.56" gradientUnits="userSpaceOnUse" id="color-5"><stop offset="0" stop-color="#1356ff"/><stop offset="1" stop-color="#00ccff"/></linearGradient><linearGradient x1="240.54" y1="154.44" x2="240.54" y2="203.4" gradientUnits="userSpaceOnUse" id="color-6"><stop offset="0" stop-color="#1356ff"/><stop offset="1" stop-color="#00ccff"/></linearGradient><linearGradient x1="262.5" y1="154.08" x2="262.5" y2="203.4" gradientUnits="userSpaceOnUse" id="color-7"><stop offset="0" stop-color="#1356ff"/><stop offset="1" stop-color="#00ccff"/></linearGradient><linearGradient x1="262.5" y1="151.56" x2="262.5" y2="156.6" gradientUnits="userSpaceOnUse" id="color-8"><stop offset="0" stop-color="#1356ff"/><stop offset="1" stop-color="#00ccff"/></linearGradient><linearGradient x1="240" y1="126" x2="240" y2="234" gradientUnits="userSpaceOnUse" id="color-9"><stop offset="0" stop-color="#cbeeff" stop-opacity="0"/><stop offset="1" stop-color="#cbeeff" stop-opacity="0"/></linearGradient><linearGradient x1="240" y1="126" x2="240" y2="234" gradientUnits="userSpaceOnUse" id="color-10"><stop offset="0" stop-color="#3a45bd"/><stop offset="1" stop-color="#00ceff"/></linearGradient></defs><g transform="translate(-182.5,-122.5)"><g data-paper-data="{&quot;isPaintingLayer&quot;:true}" fill-rule="nonzero" stroke-width="7" stroke-linejoin="miter" stroke-miterlimit="10" stroke-dasharray="" stroke-dashoffset="0" style="mix-blend-mode: normal"><path d="M186,180c0,-29.82337 24.17663,-54 54,-54c29.82338,0 54,24.17663 54,54c0,29.82338 -24.17662,54 -54,54c-29.82337,0 -54,-24.17662 -54,-54z" fill="url(#color-1)" stroke="url(#color-2)" stroke-linecap="butt"/><path d="M206.7,154.8l16.92,24.12" fill="none" stroke="url(#color-3)" stroke-linecap="round"/><path d="M197.7,210.24c0,0 4.73852,-1.54816 7.13521,-4.82402c2.08094,-2.84429 1.86479,-7.34546 1.86479,-8.85598c0,-8.06546 0,-42.12 0,-42.12" fill="none" stroke="url(#color-4)" stroke-linecap="round"/><path d="M240.54,154.44l-16.92,24.12" data-paper-data="{&quot;index&quot;:null}" fill="none" stroke="url(#color-5)" stroke-linecap="round"/><path d="M240.54,203.4v-48.96" fill="none" stroke="url(#color-6)" stroke-linecap="round"/><path d="M262.5,154.08v49.32" fill="none" stroke="url(#color-7)" stroke-linecap="round"/><path d="M248.1,154.08c0,0 19.65228,0 24.48,0c0.93329,0 3.73101,-0.34735 6.09086,-1.49968c2.76814,-1.3517 5.06914,-3.54032 5.06914,-3.54032" fill="none" stroke="url(#color-8)" stroke-linecap="round"/><path d="M186,180c0,-29.82337 24.17663,-54 54,-54c29.82338,0 54,24.17663 54,54c0,29.82338 -24.17662,54 -54,54c-29.82337,0 -54,-24.17662 -54,-54z" fill="url(#color-9)" stroke="url(#color-10)" stroke-linecap="butt"/></g></g></svg>